<svg xmlns="http://www.w3.org/2000/svg" width="108" height="110" viewBox="0 0 108 110" fill="none">
<g clip-path="url(#clip0_2160_6538)">
<path fill-rule="evenodd" clip-rule="evenodd" d="M47.1914 91.0514C48.8297 88.7942 51.3779 87.5571 54.4356 87.5571H54.4394C60.3322 87.5571 64.4469 92.0449 64.4469 98.2837C64.4469 104.522 60.2076 109.048 54.3601 109.048C51.2344 109.048 48.7467 107.872 47.131 105.638L47.0253 108.55H42.5594V79.75H47.1914V91.0514ZM54.111 105.105C57.6972 105.105 60.2001 102.357 60.2001 98.4245C60.2001 94.4011 57.9728 91.7023 54.3412 91.7023C50.7097 91.7023 48.1729 94.3668 48.1729 98.4245C48.1729 102.482 50.5247 105.105 54.111 105.105ZM14.9604 104.439C13.8128 105.322 12.8992 105.664 11.695 105.664C9.92072 105.664 8.90147 104.576 8.90147 102.673V91.9307H16.3458V87.7969H8.90147V82.4297H4.26954V87.7931H1.04945L0 91.9269H4.26954V102.711C4.26954 107.412 6.74972 110 11.2571 110C13.3145 110 15.1491 109.36 16.8592 108.043L16.9838 107.948L15.1416 104.298L14.9604 104.435V104.439ZM28.4862 87.3934C22.5632 87.3934 18.2673 91.9231 18.2673 98.1619C18.2673 104.728 22.3556 108.968 28.6787 108.968C32.2914 108.968 34.9906 107.857 37.165 105.47L37.2782 105.349L34.8207 102.36L34.6735 102.505C32.9785 104.176 31.2269 104.922 28.9845 104.922C25.4662 104.922 23.3031 102.977 22.8766 99.4333H38.0936V99.2429C38.0936 99.0526 38.1012 98.8737 38.1125 98.6948C38.1238 98.5083 38.1314 98.3218 38.1314 98.1238C38.1314 91.6072 34.345 87.3934 28.4862 87.3934ZM22.9709 96.3729C23.5598 93.4076 25.6889 91.5044 28.4485 91.5044C31.208 91.5044 33.0729 93.2744 33.4806 96.3729H22.9709ZM77.0178 87.3934C71.0948 87.3934 66.7988 91.9231 66.7988 98.1619C66.7988 104.728 70.8871 108.968 77.2103 108.968C80.823 108.968 83.5221 107.857 85.6965 105.47L85.8098 105.349L83.3522 102.36L83.205 102.505C81.51 104.176 79.7584 104.922 77.5161 104.922C73.9977 104.922 71.8347 102.977 71.4081 99.4333H86.6252V99.2429C86.6252 99.0526 86.6327 98.8737 86.644 98.6948C86.6554 98.5083 86.6629 98.3218 86.6629 98.1238C86.6629 91.6072 82.8766 87.3934 77.0178 87.3934ZM76.98 91.5006C79.7811 91.5006 81.6044 93.2706 82.0121 96.3691H71.5025C72.0914 93.4038 74.2205 91.5006 76.98 91.5006ZM106.833 87.7931L99.6489 97.6632L107.644 108.55H102.14L96.9762 101.12L91.9253 108.55H86.6931L94.4168 97.9373L87.0404 87.7931H92.5444L97.0895 94.5534L101.597 87.7931H106.833Z" fill="#000000"/>
</g>
<path d="M55.8364 19.1468C58.6805 14.4276 63.8309 13.0604 63.8309 13.0604C63.8309 13.0604 54.0012 10.4463 54.0012 0C54.0012 10.4463 44.1658 13.0604 44.1658 13.0604C44.1658 13.0604 49.3181 14.4276 52.1641 19.1468H38.7266V37.239L41.7815 31.6362H47.8894V62.8606L60.1072 75.35V37.1186C56.9915 35.6504 52.5155 31.9178 50.9121 29.0707C53.6497 29.9155 57.3221 31.0264 60.1813 31.6381H69.272V19.1468H55.8364Z" fill="#000000"/>
<defs fill="#ffffff">
<clipPath id="clip0_2160_6538" fill="#ffffff">
<rect width="107.644" height="30.25" fill="#000000" transform="translate(0 79.75)"/>
</clipPath>
</defs>
</svg>